<svg width="1280" height="720" xmlns="http://www.w3.org/2000/svg" xmlns:xlink="http://www.w3.org/1999/xlink" overflow="hidden"><script xmlns=""/><defs><clipPath id="clip0"><path d="M0 0 1280 0 1280 720 0 720Z" fill-rule="evenodd" clip-rule="evenodd"/></clipPath></defs><g clip-path="url(#clip0)"><rect x="0" y="0" width="1280" height="720" fill="#FFFFFF"/><rect x="468.5" y="294.5" width="269" height="227" stroke="#A6A6A6" stroke-miterlimit="8" fill="none"/><rect x="42.5001" y="77.5001" width="264" height="230" stroke="#A6A6A6" stroke-miterlimit="8" fill="none"/><rect x="60.5001" y="93.5001" width="229" height="175" stroke="#7F7F7F" stroke-miterlimit="8" fill="#FFFFFF"/><rect x="60.5001" y="93.5001" width="229" height="49" stroke="#7F7F7F" stroke-miterlimit="8" fill="#FFFFFF"/><text fill="#0D0D0D" font-family="Meiryo,Meiryo_MSFontService,sans-serif" font-weight="400" font-size="16" transform="translate(88.2358 112)">Owner’s Distinguished <tspan x="63.46" y="19">Name</tspan></text><rect x="60.5001" y="142.5" width="229" height="49" stroke="#7F7F7F" stroke-miterlimit="8" fill="#FFFFFF"/><rect x="60.5001" y="191.5" width="229" height="49" stroke="#7F7F7F" stroke-miterlimit="8" fill="#E2F0D9"/><text fill="#0D0D0D" font-family="Meiryo,Meiryo_MSFontService,sans-serif" font-weight="400" font-size="16" transform="translate(124.019 210)">Issuer’s<tspan x="65.36" y="0">(CA) </tspan><tspan x="-27.0733" y="19">Distinguished Name</tspan></text><rect x="60.5001" y="240.5" width="229" height="49" stroke="#7F7F7F" stroke-miterlimit="8" fill="#FFFFFF"/><text fill="#0D0D0D" font-family="Meiryo,Meiryo_MSFontService,sans-serif" font-weight="400" font-size="16" transform="translate(83.9324 269)">Issuer’s (CA) Signature</text><rect x="490.5" y="309.5" width="229" height="175" stroke="#7F7F7F" stroke-miterlimit="8" fill="#FFFFFF"/><rect x="490.5" y="309.5" width="229" height="48" stroke="#7F7F7F" stroke-miterlimit="8" fill="#E2F0D9"/><text fill="#0D0D0D" font-family="Meiryo,Meiryo_MSFontService,sans-serif" font-weight="400" font-size="16" transform="translate(519.688 328)">Issue<tspan x="41.2734" y="0">r</tspan><tspan x="48.32" y="0">’s Distinguished </tspan><tspan x="61.8467" y="19">Name</tspan></text><rect x="490.5" y="357.5" width="229" height="49" stroke="#7F7F7F" stroke-miterlimit="8" fill="#FFFFFF"/><rect x="490.5" y="406.5" width="229" height="49" stroke="#7F7F7F" stroke-miterlimit="8" fill="#E2F0D9"/><text fill="#0D0D0D" font-family="Meiryo,Meiryo_MSFontService,sans-serif" font-weight="400" font-size="16" transform="translate(572.938 426)">Root<tspan x="41.1934" y="0">CA </tspan><tspan x="-46.1533" y="19">Distinguished</tspan><tspan x="63.3467" y="19">N</tspan><tspan x="75.18" y="19">ame</tspan></text><rect x="490.5" y="455.5" width="229" height="49" stroke="#7F7F7F" stroke-miterlimit="8" fill="#FFFFFF"/><text fill="#0D0D0D" font-family="Meiryo,Meiryo_MSFontService,sans-serif" font-weight="400" font-size="16" transform="translate(532.854 484)">Root<tspan x="41.1934" y="0">CA Signature</tspan></text><rect x="934.5" y="522.5" width="229" height="49" stroke="#7F7F7F" stroke-miterlimit="8" fill="#E2F0D9"/><text fill="#0D0D0D" font-family="Meiryo,Meiryo_MSFontService,sans-serif" font-weight="400" font-size="16" transform="translate(1017.05 541)">Root CA <tspan x="-46.1533" y="19">Distinguished Name</tspan></text><rect x="934.5" y="571.5" width="229" height="49" stroke="#7F7F7F" stroke-miterlimit="8" fill="#FFFFFF"/><rect x="935.5" y="619.5" width="229" height="49" stroke="#7F7F7F" stroke-miterlimit="8" fill="#FFFFFF"/><text fill="#0D0D0D" font-family="Meiryo,Meiryo_MSFontService,sans-serif" font-weight="400" font-size="16" transform="translate(977.827 648)">Root CA Signature</text><path d="M72.5001 155.334C72.5001 152.112 75.1118 149.5 78.3336 149.5L272.667 149.5C275.888 149.5 278.5 152.112 278.5 155.334L278.5 178.667C278.5 181.888 275.888 184.5 272.667 184.5L78.3336 184.5C75.1118 184.5 72.5001 181.888 72.5001 178.667Z" stroke="#2F528F" stroke-miterlimit="8" fill="#DEEBF7" fill-rule="evenodd"/><text fill="#0D0D0D" font-family="Meiryo,Meiryo_MSFontService,sans-serif" font-weight="400" font-size="15" transform="translate(106.962 170)">Owner’s Public <tspan x="109.5" y="0">K</tspan><tspan x="119.167" y="0">ey</tspan></text><path d="M387.5 253.334C387.5 250.112 390.112 247.5 393.334 247.5L588.667 247.5C591.888 247.5 594.5 250.112 594.5 253.334L594.5 276.666C594.5 279.888 591.888 282.5 588.667 282.5L393.334 282.5C390.112 282.5 387.5 279.888 387.5 276.666Z" stroke="#2F528F" stroke-miterlimit="8" fill="#BDD7EE" fill-rule="evenodd"/><text fill="#0D0D0D" font-family="Meiryo,Meiryo_MSFontService,sans-serif" font-weight="400" font-size="15" transform="translate(419.789 267)">Issuer’s Private <tspan x="114.333" y="0">K</tspan><tspan x="124" y="0">ey</tspan></text><path d="M829.5 469.167C829.5 466.037 832.037 463.5 835.167 463.5L1030.83 463.5C1033.96 463.5 1036.5 466.037 1036.5 469.167L1036.5 491.833C1036.5 494.963 1033.96 497.5 1030.83 497.5L835.167 497.5C832.037 497.5 829.5 494.963 829.5 491.833Z" stroke="#2F528F" stroke-miterlimit="8" fill="#BDD7EE" fill-rule="evenodd"/><text fill="#0D0D0D" font-family="Meiryo,Meiryo_MSFontService,sans-serif" font-weight="400" font-size="15" transform="translate(860.484 483)">Root CA Private <tspan x="116.833" y="0">K</tspan><tspan x="126.5" y="0">ey</tspan></text><path d="M501.5 371.167C501.5 368.037 504.037 365.5 507.167 365.5L702.833 365.5C705.963 365.5 708.5 368.037 708.5 371.167L708.5 393.833C708.5 396.963 705.963 399.5 702.833 399.5L507.167 399.5C504.037 399.5 501.5 396.963 501.5 393.833Z" stroke="#2F528F" stroke-miterlimit="8" fill="#DEEBF7" fill-rule="evenodd"/><text fill="#0D0D0D" font-family="Meiryo,Meiryo_MSFontService,sans-serif" font-weight="400" font-size="15" transform="translate(537.784 385)">Issuer’s Public <tspan x="106.667" y="0">K</tspan><tspan x="116.333" y="0">ey</tspan></text><path d="M289.5 214 606.677 214 606.677 301.19 603.677 301.19 603.677 215.5 605.177 217 289.5 217ZM609.677 299.69 605.177 308.69 600.677 299.69Z" fill="#00B050"/><path d="M719.5 430 1050.95 430 1050.95 515.057 1047.95 515.057 1047.95 431.5 1049.45 433 719.5 433ZM1053.95 513.557 1049.45 522.557 1044.95 513.557Z" fill="#00B050"/><rect x="916.5" y="506.5" width="262" height="179" stroke="#A6A6A6" stroke-miterlimit="8" fill="none"/><path d="M501.987 384.357 174 384.357 174 297 177 297 177 382.857 175.5 381.357 501.987 381.357ZM171 298.5 175.5 289.5 180 298.5Z" fill="#4472C4"/><path d="M945.905 597.31 603 597.31 603 512 606 512 606 595.81 604.5 594.31 945.905 594.31ZM600 513.5 604.5 504.5 609 513.5Z" fill="#4472C4"/><path d="M946.5 584.334C946.5 581.112 949.112 578.5 952.334 578.5L1146.67 578.5C1149.89 578.5 1152.5 581.112 1152.5 584.334L1152.5 607.667C1152.5 610.888 1149.89 613.5 1146.67 613.5L952.334 613.5C949.112 613.5 946.5 610.888 946.5 607.667Z" stroke="#2F528F" stroke-miterlimit="8" fill="#DEEBF7" fill-rule="evenodd"/><text fill="#0D0D0D" font-family="Meiryo,Meiryo_MSFontService,sans-serif" font-weight="400" font-size="15" transform="translate(981.291 599)">Root CA Public <tspan x="109.167" y="0">K</tspan><tspan x="118.833" y="0">ey</tspan><tspan fill="#000000" font-size="16" x="-713.204" y="-194">Verify Signature</tspan><tspan fill="#000000" font-size="16" x="-263.972" y="20">Verify Signature</tspan><tspan fill="#000000" font-size="16" x="-588.718" y="-390">Reference</tspan><tspan fill="#000000" font-size="16" x="-176.826" y="-174">Reference</tspan><tspan fill="#000000" font-weight="700" font-size="19" x="-795.73" y="-538">End Entity Certificate</tspan><tspan fill="#000000" font-weight="700" font-size="19" x="-357.377" y="-325">Intermediate Certificate</tspan><tspan fill="#000000" font-weight="700" font-size="19" x="85.4327" y="-112">Roo</tspan><tspan fill="#000000" font-weight="700" font-size="19" x="123.413" y="-112">t</tspan><tspan fill="#000000" font-weight="700" font-size="19" x="137.579" y="-112">Certificate</tspan></text><path d="M829.77 482.007 820.77 482.007 820.77 479.007 829.77 479.007ZM817.77 482.007 808.77 482.006 808.77 479.006 817.77 479.007ZM805.77 482.006 796.77 482.005 796.77 479.005 805.77 479.006ZM793.77 482.005 784.77 482.004 784.77 479.004 793.77 479.005ZM781.77 482.004 772.77 482.004 772.77 479.004 781.77 479.004ZM769.77 482.003 760.77 482.003 760.77 479.003 769.77 479.003ZM757.77 482.003 748.77 482.002 748.77 479.002 757.77 479.003ZM745.77 482.002 736.77 482.001 736.77 479.001 745.77 479.002ZM733.77 482.001 727 482.001 727 479.001 733.77 479.001ZM728.5 485.001 719.5 480.5 728.5 476.001Z" fill="#0070C0"/><text font-family="Meiryo,Meiryo_MSFontService,sans-serif" font-weight="400" font-size="16" transform="translate(765.784 473)">Sign</text><path d="M0.000320855-1.5 9.00032-1.49807 8.99968 1.50193-0.000320855 1.5ZM12.0003-1.49743 21.0003-1.49551 20.9997 1.50449 11.9997 1.50257ZM24.0003-1.49487 33.0003-1.49294 32.9997 1.50706 23.9997 1.50513ZM36.0003-1.4923 45.0003-1.49037 44.9997 1.50963 35.9997 1.5077ZM48.0003-1.48973 57.0003-1.48781 56.9997 1.51219 47.9997 1.51027ZM60.0003-1.48717 69.0003-1.48524 68.9997 1.51476 59.9997 1.51283ZM72.0003-1.4846 81.0003-1.48267 80.9997 1.51733 71.9997 1.5154ZM84.0003-1.48203 90.6634-1.48061 90.6627 1.51939 83.9997 1.51797ZM89.1639-4.48093 98.1629 0.0209974 89.162 4.51907Z" fill="#4472C4" transform="matrix(-1 -8.74228e-08 -8.74228e-08 1 387.663 264.5)"/><text font-family="Meiryo,Meiryo_MSFontService,sans-serif" font-weight="400" font-size="16" transform="translate(325.222 256)">Sign</text><path d="M0-1.5 9-1.5 9 1.5 0 1.5ZM12-1.5 21-1.5 21 1.5 12 1.5ZM24-1.5 33-1.5 33 1.5 24 1.5ZM36-1.5 45-1.5 45 1.5 36 1.5ZM48-1.5 57-1.5 57 1.5 48 1.5ZM60-1.5 69-1.5 69 1.5 60 1.5ZM72-1.5 81-1.5 81 1.5 72 1.5ZM84-1.5 93-1.5 93 1.5 84 1.5ZM96-1.5 105-1.5 105 1.5 96 1.5ZM108-1.5 117-1.5 117 1.5 108 1.5ZM120-1.5 129-1.5 129 1.5 120 1.5ZM132-1.5 141-1.5 141 1.5 132 1.5ZM144-1.5 148.147-1.5 148.147 6.35307 145.147 6.35307 145.147 0 146.647 1.5 144 1.5ZM148.147 9.35307 148.147 18.3531 145.147 18.3531 145.147 9.35307ZM148.147 21.3531 148.147 30.3531 145.147 30.3531 145.147 21.3531ZM148.147 33.3531 148.147 42.3531 145.147 42.3531 145.147 33.3531ZM148.147 45.3531 148.147 54.3531 145.147 54.3531 145.147 45.3531ZM148.147 57.3531 148.147 60.9179 145.147 60.9179 145.147 57.3531ZM151.147 59.4179 146.647 68.418 142.147 59.4179Z" fill="#4472C4" transform="matrix(-4.37114e-08 1 1 4.37114e-08 867.5 497.5)"/><text font-family="Meiryo,Meiryo_MSFontService,sans-serif" font-weight="400" font-size="16" transform="translate(792.523 552)">Self<tspan x="28.6666" y="0">-</tspan>Sign</text></g></svg>